<?xml version="1.0" encoding="utf-8"?>
<!-- Generator: Adobe Illustrator 19.1.0, SVG Export Plug-In . SVG Version: 6.00 Build 0)  -->
<svg version="1.0" id="Layer_1" xmlns="http://www.w3.org/2000/svg" xmlns:xlink="http://www.w3.org/1999/xlink" x="0px" y="0px"
	 viewBox="0 0 130 120" enable-background="new 0 0 130 120" xml:space="preserve">
<g>
	<rect x="4.6" y="2.2" fill="none" stroke="#333333" stroke-width="2.8346" stroke-miterlimit="10" width="106.3" height="106.3"/>
	<g>
		<path fill="#EC1C3A" d="M119.4,16.1h6.9c0.4,0,0.7,0.2,0.7,0.7v1.5c0,0.4-0.2,0.7-0.7,0.7h-10.6c-0.4,0-0.7-0.2-0.7-0.7v-1.6
			c0-0.3,0.1-0.6,0.3-0.8l6.7-6.6c1.3-1.3,1.7-2.1,1.7-3.1c0-1.6-1.1-2.5-2.9-2.5c-1.3,0-2.4,0.6-3.4,1.9c-0.3,0.4-0.6,0.4-0.9,0.1
			l-1.2-1c-0.3-0.3-0.4-0.6-0.1-0.9c1.4-2,3.3-3,5.8-3c3.7,0,6,2.1,6,5.4c0,2-0.7,3.5-2.5,5.2L119.4,16.1L119.4,16.1z"/>
	</g>
	<g>
		<path fill="#EC1C3A" d="M6.7,112.8c0.1,0,0.2,0.1,0.2,0.2v4.8c0,0.1-0.1,0.2-0.2,0.2H6.1c-0.1,0-0.2,0-0.2-0.1l-1.8-3.5h0v3.4
			c0,0.1-0.1,0.2-0.2,0.2H3.4c-0.1,0-0.2-0.1-0.2-0.2v-4.8c0-0.1,0.1-0.2,0.2-0.2h0.7c0.1,0,0.2,0,0.2,0.1l1.7,3.3h0v-3.3
			c0-0.1,0.1-0.2,0.2-0.2H6.7z"/>
		<path fill="#EC1C3A" d="M12.7,114.5c0-1.2,0.7-1.9,1.9-1.9s1.9,0.7,1.9,1.9v1.6c0,1.2-0.7,1.9-1.9,1.9s-1.9-0.7-1.9-1.9V114.5z
			 M13.7,116.1c0,0.8,0.3,1.2,1,1.2c0.6,0,1-0.4,1-1.2v-1.5c0-0.8-0.3-1.2-1-1.2c-0.6,0-1,0.4-1,1.2V116.1z"/>
		<path fill="#EC1C3A" d="M24.1,113.6v4.2c0,0.1-0.1,0.2-0.2,0.2h-0.6c-0.1,0-0.2-0.1-0.2-0.2v-4.2H22c-0.1,0-0.2-0.1-0.2-0.2v-0.5
			c0-0.1,0.1-0.2,0.2-0.2h3.3c0.1,0,0.2,0.1,0.2,0.2v0.5c0,0.1-0.1,0.2-0.2,0.2H24.1z"/>
		<path fill="#EC1C3A" d="M40.8,113.3c0.1,0.1,0.1,0.2,0,0.3l-0.3,0.3c-0.1,0.1-0.2,0.1-0.3,0c-0.3-0.2-0.6-0.4-0.9-0.4
			c-0.5,0-0.8,0.3-0.8,0.7c0,0.4,0.3,0.6,1,0.7c1.2,0.2,1.6,0.7,1.6,1.6c0,0.5-0.2,0.8-0.5,1.1c-0.3,0.3-0.7,0.4-1.2,0.4
			c-0.8,0-1.4-0.2-1.9-0.7c-0.1-0.1-0.1-0.2,0-0.3l0.3-0.3c0.1-0.1,0.2-0.1,0.3,0c0.3,0.3,0.7,0.5,1.2,0.5c0.5,0,0.8-0.3,0.8-0.7
			c0-0.4-0.2-0.6-1-0.7c-1.2-0.2-1.6-0.6-1.6-1.6c0-0.5,0.2-0.8,0.5-1.1c0.3-0.3,0.7-0.4,1.2-0.4C39.9,112.7,40.4,112.9,40.8,113.3z
			"/>
		<path fill="#EC1C3A" d="M46.3,114.5c0-1.2,0.7-1.9,1.9-1.9s1.9,0.7,1.9,1.9v1.6c0,1.2-0.7,1.9-1.9,1.9s-1.9-0.7-1.9-1.9V114.5z
			 M47.3,116.1c0,0.8,0.3,1.2,1,1.2c0.6,0,1-0.4,1-1.2v-1.5c0-0.8-0.3-1.2-1-1.2c-0.6,0-1,0.4-1,1.2V116.1z"/>
		<path fill="#EC1C3A" d="M65.7,113.3c0.1,0.1,0.1,0.2,0,0.3l-0.3,0.3c-0.1,0.1-0.2,0.1-0.3,0c-0.3-0.2-0.6-0.4-0.9-0.4
			c-0.5,0-0.8,0.3-0.8,0.7c0,0.4,0.3,0.6,1,0.7c1.2,0.2,1.6,0.7,1.6,1.6c0,0.5-0.2,0.8-0.5,1.1c-0.3,0.3-0.7,0.4-1.2,0.4
			c-0.8,0-1.4-0.2-1.9-0.7c-0.1-0.1-0.1-0.2,0-0.3l0.3-0.3c0.1-0.1,0.2-0.1,0.3,0c0.3,0.3,0.7,0.5,1.2,0.5c0.5,0,0.8-0.3,0.8-0.7
			c0-0.4-0.2-0.6-1-0.7c-1.2-0.2-1.6-0.6-1.6-1.6c0-0.5,0.2-0.8,0.5-1.1c0.3-0.3,0.7-0.4,1.2-0.4C64.8,112.7,65.3,112.9,65.7,113.3z
			"/>
		<path fill="#EC1C3A" d="M75.2,118.8c0,0.1,0,0.2-0.1,0.3c-0.2,0.1-0.5,0.2-0.8,0.2c-0.8,0-1.3-0.4-1.3-1.2
			c-1.2-0.1-1.8-0.7-1.8-1.9v-1.6c0-1.2,0.7-1.9,1.9-1.9s1.9,0.7,1.9,1.9v1.6c0,1-0.4,1.5-1.2,1.8c0,0.3,0.2,0.5,0.5,0.5
			c0.1,0,0.3,0,0.4-0.1c0.1-0.1,0.2,0,0.2,0.1L75.2,118.8z M72.2,116.1c0,0.8,0.3,1.2,1,1.2c0.6,0,1-0.4,1-1.2v-1.5
			c0-0.8-0.3-1.2-1-1.2c-0.6,0-1,0.4-1,1.2V116.1z"/>
		<path fill="#EC1C3A" d="M84.4,116.2c0,1.2-0.6,1.8-1.8,1.8c-1.2,0-1.8-0.6-1.8-1.8v-3.3c0-0.1,0.1-0.2,0.2-0.2h0.6
			c0.1,0,0.2,0.1,0.2,0.2v3.2c0,0.7,0.3,1.1,0.9,1.1c0.6,0,0.9-0.4,0.9-1.1v-3.2c0-0.1,0.1-0.2,0.2-0.2h0.6c0.1,0,0.2,0.1,0.2,0.2
			V116.2z"/>
		<path fill="#EC1C3A" d="M94.1,117.8c0,0.1,0,0.2-0.1,0.2h-0.6c-0.1,0-0.2,0-0.2-0.1l-0.2-0.8H91l-0.2,0.8c0,0.1-0.1,0.1-0.2,0.1
			H90c-0.1,0-0.2-0.1-0.1-0.2l1.6-4.8c0-0.1,0.1-0.1,0.2-0.1h0.7c0.1,0,0.2,0,0.2,0.1L94.1,117.8z M92,113.9L92,113.9l-0.7,2.3h1.4
			L92,113.9z"/>
		<path fill="#EC1C3A" d="M100.6,116v1.8c0,0.1-0.1,0.2-0.2,0.2h-0.6c-0.1,0-0.2-0.1-0.2-0.2v-4.8c0-0.1,0.1-0.2,0.2-0.2h1.4
			c1.3,0,1.9,0.5,1.9,1.6c0,0.8-0.3,1.3-1,1.5l1.1,1.8c0.1,0.1,0,0.2-0.1,0.2h-0.7c-0.1,0-0.2,0-0.2-0.1l-1-1.8H100.6z M100.6,115.2
			h0.7c0.6,0,0.9-0.3,0.9-0.8c0-0.6-0.3-0.8-0.9-0.8h-0.7V115.2z"/>
		<path fill="#EC1C3A" d="M109.9,114.9h1.9c0.1,0,0.2,0.1,0.2,0.2v0.5c0,0.1-0.1,0.2-0.2,0.2h-1.9v1.4h2.2c0.1,0,0.2,0.1,0.2,0.2
			v0.5c0,0.1-0.1,0.2-0.2,0.2h-3c-0.1,0-0.2-0.1-0.2-0.2v-4.8c0-0.1,0.1-0.2,0.2-0.2h3c0.1,0,0.2,0.1,0.2,0.2v0.5
			c0,0.1-0.1,0.2-0.2,0.2h-2.2V114.9z"/>
	</g>
	<g>
		<path fill="#333333" d="M58.5,25.7c-4.1,0-6.2,2.5-6.2,7.5v8.1c0,5,2.1,7.5,6.2,7.5c4.1,0,6.1-2.5,6.1-7.5v-8.1
			C64.6,28.2,62.6,25.7,58.5,25.7z"/>
		<path fill="#333333" d="M90.2,68.1c-4.1,0-6.2,2.5-6.2,7.5v8c0,5,2.1,7.5,6.2,7.5c4.1,0,6.1-2.5,6.1-7.5v-8
			C96.3,70.6,94.3,68.1,90.2,68.1z"/>
		<path fill="#333333" d="M4.6,2.2v106.3h106.3V2.2H4.6z M39.7,53.9c0,1.1-0.6,1.7-1.7,1.7h-4.5c-1.1,0-1.7-0.6-1.7-1.7v-21
			c0-4.8-1.9-7.2-5.8-7.2c-4,0-5.9,2.4-5.9,7.2v21c0,1.1-0.6,1.7-1.7,1.7H14c-1.1,0-1.7-0.6-1.7-1.7V32.4c0-8.7,4.8-13.4,13.7-13.4
			c8.8,0,13.7,4.7,13.7,13.4V53.9z M68.8,95c-2.4,2-5.6,2.9-9.5,2.9c-6.3,0-11.1-1.6-14.4-4.9c-0.6-0.6-0.6-1.1,0.1-1.7l2.7-2.3
			c0.7-0.6,1.3-0.5,2,0.1c2.4,2.2,5.5,3.3,9.2,3.3c3.9,0,6.3-1.8,6.3-4.9c0-2.7-1.9-3.9-7.9-4.8c-8.9-1.4-12.3-4.3-12.3-10.6
			c0-3.2,1.2-5.7,3.6-7.7c2.4-2,5.6-2.9,9.6-2.9c5.5,0,9.7,1.3,12.6,4c0.6,0.6,0.5,1.2-0.1,1.8l-2.7,2.3c-0.7,0.6-1.3,0.5-2-0.1
			c-1.9-1.6-4.4-2.5-7.3-2.5c-3.9,0-6.3,1.8-6.3,4.9c0,2.6,2,3.9,7.9,4.8c8.9,1.3,12.3,4.5,12.3,10.6C72.5,90.4,71.2,93,68.8,95z
			 M72.5,41.9c0,8.8-5,13.7-13.9,13.7c-9.1,0-14-4.8-14-13.7v-9.3c0-8.8,4.9-13.7,14-13.7c9,0,13.9,4.8,13.9,13.7V41.9z M74.3,24.2
			v-3.4c0-1.1,0.6-1.6,1.6-1.6h3v-4.3c0-1.1,0.6-1.6,1.6-1.6h4.5c1.1,0,1.6,0.6,1.6,1.6v4.3h8.7c1.1,0,1.6,0.6,1.6,1.6v3.4
			c0,1.1-0.6,1.6-1.6,1.6h-8.7v17.6c0,3.6,1.7,5.4,5.1,5.4c0.9,0,1.9-0.2,2.9-0.6c1.1-0.4,1.8-0.1,2.1,0.9l0.9,3.1
			c0.4,1,0.1,1.7-0.9,2.1c-1.6,0.7-3.6,1.1-6,1.1c-8,0-12-4-12-12.1V25.9h-3C74.9,25.9,74.3,25.3,74.3,24.2z M104.2,84.2
			c0,8.8-5,13.7-13.9,13.7c-9.1,0-14-4.8-14-13.7V75c0-8.8,4.9-13.7,14-13.7c9,0,13.9,4.8,13.9,13.7V84.2z"/>
	</g>
</g>
</svg>
